# xmcd CD database file
#
# Track frame offsets:
#	150
#	20801
#	45557
#	68229
#	86557
#	109151
#	130674
#	150395
#	169715
#	183443
#	204753
#
# Disc length: 3025 seconds
#
# Revision: 1
# Processed by: cddbd v1.5.2PL0 Copyright (c) Steve Scherf et al.
# Submitted via: CDex 1.51
#
DISCID=870bcf0b
DTITLE=Alice Stuart - Can't Find No Heaven
DYEAR=2002
DGENRE=Blues
TTITLE0=Big Boss Man
TTITLE1=Blues In The Bottle
TTITLE2=Drop Down Daddy
TTITLE3=Turn Your Money Green
TTITLE4=Wild Bill Jones
TTITLE5=I Ruined Your Life
TTITLE6=Hard Time Killin' Floor
TTITLE7=Rather Be The Devil
TTITLE8=Sugar Babe
TTITLE9=The Man's So Good
TTITLE10=Night Patrol
EXTD=YEAR: 2002
EXTT0=
EXTT1=
EXTT2=
EXTT3=
EXTT4=
EXTT5=
EXTT6=
EXTT7=
EXTT8=
EXTT9=
EXTT10=
PLAYORDER=
